<svg width="32" height="32" viewBox="0 0 32 32" fill="none" xmlns="http://www.w3.org/2000/svg">
<g clip-path="url(#clip0_1_60)">
<path d="M26.2763 31.4527C19.4453 32.1832 12.5558 32.1832 5.72476 31.4527C4.40026 31.3111 3.1642 30.7202 2.22231 29.7783C1.28041 28.8364 0.689498 27.6003 0.547916 26.2758C-0.182639 19.4448 -0.182639 12.5553 0.547916 5.72427C0.689498 4.39978 1.28041 3.16371 2.22231 2.22182C3.1642 1.27992 4.40026 0.689009 5.72476 0.547428C12.5558 -0.183127 19.4453 -0.183127 26.2763 0.547428C27.6008 0.689009 28.8369 1.27992 29.7788 2.22182C30.7207 3.16371 31.3116 4.39978 31.4532 5.72427C32.1837 12.5553 32.1837 19.4448 31.4532 26.2758C31.3116 27.6003 30.7207 28.8364 29.7788 29.7783C28.8369 30.7202 27.6008 31.3111 26.2763 31.4527Z" fill="#F0F9FF"/>
<path d="M32.0014 17.3621H15.1046V14.64H32.0014C32.0099 15.5467 32.0099 16.454 32.0014 17.3621ZM31.6457 24.3032C31.5888 24.96 31.5236 25.6189 31.4541 26.2758C31.427 26.5289 31.3834 26.78 31.3236 27.0274H0.679342C0.619489 26.78 0.575887 26.5289 0.548816 26.2758C0.479342 25.6189 0.414079 24.96 0.357237 24.3032H31.6457ZM30.3341 2.86526H15.1046V0H16.0014C16.8576 0 17.7144 0.0112281 18.572 0.0336842C19.4295 0.0561404 20.2864 0.0905263 21.1425 0.136842C22.4267 0.204211 23.7102 0.297544 24.993 0.416842C25.4141 0.456842 25.8499 0.498947 26.2772 0.545263C26.3951 0.557895 26.5109 0.574737 26.6267 0.595789C26.7088 0.608421 26.7888 0.623158 26.8688 0.64L26.9193 0.650526C27.0099 0.671579 27.1004 0.692632 27.1888 0.717895C27.2772 0.743158 27.3846 0.772632 27.4793 0.804211C27.671 0.864367 27.8593 0.934641 28.0436 1.01474C28.1341 1.05474 28.2246 1.09684 28.3109 1.14316L28.5215 1.26105C28.6246 1.32 28.732 1.38316 28.8267 1.44632C28.9214 1.50947 28.9867 1.55368 29.0646 1.61053L29.2541 1.75368L29.3572 1.83789C29.3993 1.87158 29.4393 1.90526 29.4772 1.94105C29.5151 1.97684 29.5909 2.04 29.6457 2.09263L29.7699 2.21263C29.9058 2.34591 30.0344 2.48647 30.1551 2.63368C30.2246 2.72 30.2793 2.79158 30.3341 2.86526ZM31.9404 12.5305H15.0983V9.80632H31.7972C31.8604 10.7074 31.9081 11.6154 31.9404 12.5305ZM31.9404 19.4716C31.9067 20.3796 31.8611 21.287 31.8036 22.1937H0.199342C0.140395 21.2926 0.0947807 20.3853 0.0625 19.4716H31.9404ZM30.3341 29.1368C29.8545 29.7822 29.2465 30.3211 28.5482 30.7197C27.85 31.1183 27.0767 31.3678 26.2772 31.4526C19.4462 32.1832 12.5567 32.1832 5.72566 31.4526C4.92615 31.3678 4.15289 31.1183 3.45466 30.7197C2.75642 30.3211 2.14835 29.7822 1.66882 29.1368H30.3341ZM31.6457 7.69684H15.1046V4.97474H31.3151C31.3748 5.22147 31.4184 5.47183 31.4457 5.72421C31.5236 6.38105 31.5804 7.0379 31.6457 7.69684Z" fill="#F40055"/>
<path d="M16 0V17.3621H0.0105263V16.7305C0 16.1579 0 15.5789 0 14.9958C0 14.7411 0 14.4884 0.0105263 14.2337C0.0210526 13.9789 0.0210526 13.6989 0.0273684 13.4316V13.3705C0.0273684 13.0842 0.0442105 12.7979 0.0547368 12.5095C0.231262 12.6999 0.471947 12.8184 0.730526 12.8421C0.730526 13.1213 0.841428 13.389 1.03883 13.5864C1.23624 13.7838 1.50398 13.8947 1.78316 13.8947C2.06233 13.8947 2.33007 13.7838 2.52748 13.5864C2.72489 13.389 2.83579 13.1213 2.83579 12.8421C3.11496 12.8421 3.38271 12.7312 3.58011 12.5338C3.77752 12.3364 3.88842 12.0687 3.88842 11.7895C3.88842 11.5103 3.77752 11.2426 3.58011 11.0452C3.38271 10.8477 3.11496 10.7368 2.83579 10.7368C2.83579 10.4577 2.72489 10.1899 2.52748 9.99252C2.33007 9.79511 2.06233 9.68421 1.78316 9.68421C1.50398 9.68421 1.23624 9.79511 1.03883 9.99252C0.841428 10.1899 0.730526 10.4577 0.730526 10.7368C0.504319 10.7623 0.292756 10.8614 0.128421 11.0189V10.8611C0.153684 10.5389 0.172632 10.2147 0.193684 9.89474C0.214737 9.57474 0.235789 9.26316 0.258947 8.93895C0.258947 8.86526 0.269474 8.79368 0.275789 8.72842C0.301053 8.37263 0.330526 8.01684 0.36 7.66105C0.360866 7.65618 0.360866 7.65119 0.36 7.64632C0.393684 7.26947 0.427368 6.89263 0.465263 6.5179C0.490526 6.25684 0.517895 5.99579 0.545263 5.73474C0.573494 5.4818 0.617084 5.23081 0.675789 4.98316C0.696842 4.90316 0.717895 4.82105 0.741053 4.74105C0.764211 4.66105 0.778947 4.61474 0.8 4.55158C0.833684 4.44421 0.871579 4.34105 0.913684 4.23368C0.95579 4.12632 0.976842 4.07579 1.01053 4C1.04421 3.92421 1.08 3.84632 1.11789 3.77053C1.17263 3.66105 1.22947 3.56 1.29053 3.44842C1.32 3.39579 1.35158 3.34316 1.38316 3.29263C1.44632 3.18947 1.51368 3.08211 1.59368 2.98947C1.67368 2.89684 1.72842 2.80421 1.80421 2.71368C1.92211 2.56632 2.04632 2.42737 2.17684 2.29263L2.29263 2.17684C2.42526 2.04842 2.56421 1.92421 2.71368 1.80842L2.84 1.68421C2.88632 1.64632 2.93684 1.61263 2.98526 1.57684C3.14808 1.46351 3.31673 1.3588 3.49053 1.26316L3.60421 1.2C3.68421 1.15789 3.76421 1.11579 3.84842 1.07579L4.02737 0.99579C4.08842 0.968421 4.14947 0.943158 4.21263 0.92C4.27579 0.896842 4.36632 0.861053 4.44421 0.833684L4.60421 0.781053H4.63368L4.77053 0.741053L4.98105 0.686316C5.05263 0.656842 5.13474 0.631579 5.21474 0.631579H5.23368C5.31158 0.616842 5.38947 0.602105 5.46947 0.591579C5.54947 0.581053 5.6379 0.566316 5.72421 0.557895C6.42596 0.484912 7.12772 0.414737 7.82947 0.347368L8.29474 0.309474C8.60842 0.284211 8.92632 0.258947 9.23368 0.237895H9.24632C9.55368 0.210526 9.86105 0.195789 10.1684 0.176842H10.2168L10.7368 0.145263H10.8505C11.4821 0.111579 12.1137 0.0842105 12.7453 0.0631579C13.1474 0.0442105 13.5389 0.0336842 13.9305 0.0252632C14.3221 0.0168421 14.6695 0.0105263 15.04 0H15.1032H16Z" fill="#406BD4"/>
<path d="M13.263 10.7474C13.5422 10.7474 13.81 10.8583 14.0074 11.0557C14.2048 11.2531 14.3157 11.5209 14.3157 11.8001C14.3157 12.0792 14.2048 12.347 14.0074 12.5444C13.81 12.7418 13.5422 12.8527 13.263 12.8527C13.263 13.1319 13.1521 13.3996 12.9547 13.597C12.7573 13.7944 12.4896 13.9053 12.2104 13.9053C11.9312 13.9053 11.6635 13.7944 11.4661 13.597C11.2687 13.3996 11.1578 13.1319 11.1578 12.8527C10.8786 12.8527 10.6109 12.7418 10.4135 12.5444C10.2161 12.347 10.1051 12.0792 10.1051 11.8001C10.1051 11.5209 10.2161 11.2531 10.4135 11.0557C10.6109 10.8583 10.8786 10.7474 11.1578 10.7474C11.1578 10.4683 11.2687 10.2005 11.4661 10.0031C11.6635 9.8057 11.9312 9.6948 12.2104 9.6948C12.4896 9.6948 12.7573 9.8057 12.9547 10.0031C13.1521 10.2005 13.263 10.4683 13.263 10.7474ZM5.0062 11.7895C5.00484 11.528 5.10088 11.2753 5.27562 11.0807C5.45037 10.8861 5.69129 10.7636 5.95146 10.7369C5.95146 10.4577 6.06237 10.19 6.25977 9.99258C6.45718 9.79517 6.72492 9.68427 7.0041 9.68427C7.28327 9.68427 7.55101 9.79517 7.74842 9.99258C7.94583 10.19 8.05673 10.4577 8.05673 10.7369C8.3359 10.7369 8.60364 10.8478 8.80105 11.0452C8.99846 11.2426 9.10936 11.5104 9.10936 11.7895C9.10936 12.0687 8.99846 12.3364 8.80105 12.5339C8.60364 12.7313 8.3359 12.8422 8.05673 12.8422C8.05673 13.1213 7.94583 13.3891 7.74842 13.5865C7.55101 13.7839 7.28327 13.8948 7.0041 13.8948C6.72492 13.8948 6.45718 13.7839 6.25977 13.5865C6.06237 13.3891 5.95146 13.1213 5.95146 12.8422C5.69129 12.8155 5.45037 12.6929 5.27562 12.4983C5.10088 12.3037 5.00484 12.0511 5.0062 11.7895ZM8.99567 5.52006C8.99699 5.78192 8.90065 6.03487 8.72547 6.22951C8.55029 6.42415 8.30886 6.54651 8.04831 6.57269C8.04831 6.85187 7.9374 7.11961 7.74 7.31701C7.54259 7.51442 7.27485 7.62532 6.99567 7.62532C6.7165 7.62532 6.44876 7.51442 6.25135 7.31701C6.05394 7.11961 5.94304 6.85187 5.94304 6.57269C5.66387 6.57269 5.39613 6.46179 5.19872 6.26438C5.00131 6.06697 4.89041 5.79923 4.89041 5.52006C4.89041 5.24088 5.00131 4.97314 5.19872 4.77574C5.39613 4.57833 5.66387 4.46743 5.94304 4.46743C5.94304 4.18825 6.05394 3.92051 6.25135 3.7231C6.44876 3.5257 6.7165 3.41479 6.99567 3.41479C7.27485 3.41479 7.54259 3.5257 7.74 3.7231C7.9374 3.92051 8.04831 4.18825 8.04831 4.46743C8.30886 4.49361 8.55029 4.61597 8.72547 4.81061C8.90065 5.00525 8.99699 5.2582 8.99567 5.52006ZM3.77462 5.52006C3.77599 5.78159 3.67994 6.03426 3.5052 6.22885C3.33046 6.42345 3.08953 6.54602 2.82936 6.57269C2.82936 6.85187 2.71846 7.11961 2.52105 7.31701C2.32364 7.51442 2.0559 7.62532 1.77673 7.62532C1.49755 7.62532 1.22981 7.51442 1.0324 7.31701C0.834997 7.11961 0.724095 6.85187 0.724095 6.57269C0.633924 6.56363 0.545397 6.54239 0.460938 6.50953C0.486201 6.24848 0.513569 5.98743 0.540937 5.72637C0.614439 5.04298 0.808306 4.37799 1.11357 3.76216C1.2995 3.61025 1.53242 3.52765 1.77252 3.52848C2.03405 3.52712 2.28672 3.62316 2.48131 3.7979C2.6759 3.97265 2.79848 4.21357 2.82515 4.47374C3.08499 4.49933 3.32605 4.62058 3.50151 4.81393C3.67697 5.00729 3.77431 5.25896 3.77462 5.52006ZM14.2146 5.52006C14.216 5.78159 14.1199 6.03426 13.9452 6.22885C13.7705 6.42345 13.5295 6.54602 13.2694 6.57269C13.2694 6.85187 13.1585 7.11961 12.9611 7.31701C12.7636 7.51442 12.4959 7.62532 12.2167 7.62532C11.9376 7.62532 11.6698 7.51442 11.4724 7.31701C11.275 7.11961 11.1641 6.85187 11.1641 6.57269C10.8849 6.57269 10.6172 6.46179 10.4198 6.26438C10.2224 6.06697 10.1115 5.79923 10.1115 5.52006C10.1115 5.24088 10.2224 4.97314 10.4198 4.77574C10.6172 4.57833 10.8849 4.46743 11.1641 4.46743C11.1641 4.18825 11.275 3.92051 11.4724 3.7231C11.6698 3.5257 11.9376 3.41479 12.2167 3.41479C12.4959 3.41479 12.7636 3.5257 12.9611 3.7231C13.1585 3.92051 13.2694 4.18825 13.2694 4.46743C13.5295 4.4941 13.7705 4.61667 13.9452 4.81126C14.1199 5.00585 14.216 5.25853 14.2146 5.52006Z" fill="white"/>
</g>
<defs>
<clipPath id="clip0_1_60">
<rect width="32" height="32" fill="white"/>
</clipPath>
</defs>
</svg>
