<svg width="213" height="68" viewBox="0 0 213 68" fill="none" xmlns="http://www.w3.org/2000/svg">
<path d="M116.838 0.86792V0.86792C117.26 7.15303 122.445 12.0564 128.744 12.1279L144.685 12.3087L128.744 12.4896C122.445 12.561 117.26 17.4644 116.838 23.7495V23.7495V23.7495C116.415 17.4644 111.23 12.561 104.932 12.4896L88.9902 12.3087L104.932 12.1279C111.23 12.0564 116.415 7.15303 116.838 0.86792V0.86792Z" fill="#FF005C"/>
<path d="M77.625 47.3315V47.3315C78.0043 52.9753 82.66 57.3784 88.3161 57.4425L102.631 57.6049L88.3161 57.7673C82.66 57.8315 78.0043 62.2345 77.625 67.8783V67.8783V67.8783C77.2457 62.2345 72.59 57.8315 66.9338 57.7673L52.6191 57.6049L66.9338 57.4425C72.59 57.3784 77.2457 52.9753 77.625 47.3315V47.3315Z" fill="#FF005C"/>
<path d="M210.138 20.639C212.391 23.2055 212.156 26.2137 209.162 29.5228C206.195 32.8026 200.654 36.2132 192.933 39.5448C177.501 46.203 153.544 52.4678 124.713 56.741C95.8827 61.0142 67.7082 62.4763 45.4841 61.3993C34.3636 60.8604 24.7991 59.6886 17.4183 57.9427C9.9717 56.1811 5.11596 53.9274 2.86225 51.3609C0.608544 48.7944 0.843719 45.7862 3.83769 42.4772C6.80515 39.1974 12.3458 35.7868 20.0675 32.4551C35.4991 25.7969 59.4562 19.5322 88.2868 15.259C117.117 10.9858 145.292 9.52367 167.516 10.6007C178.636 11.1396 188.201 12.3113 195.582 14.0573C203.028 15.8189 207.884 18.0725 210.138 20.639Z" stroke="#FF005C" stroke-width="2"/>
<path d="M26.8963 47V25.1818H35.5043C37.152 25.1818 38.5582 25.4766 39.723 26.0661C40.8949 26.6484 41.7862 27.4759 42.397 28.5483C43.0149 29.6136 43.3239 30.8672 43.3239 32.3089C43.3239 33.7578 43.0114 35.0043 42.3864 36.0483C41.7614 37.0852 40.8558 37.8807 39.6697 38.4347C38.4908 38.9886 37.0632 39.2656 35.3871 39.2656H29.6236V35.5582H34.6413C35.522 35.5582 36.2536 35.4375 36.8359 35.196C37.4183 34.9545 37.8516 34.5923 38.1357 34.1094C38.4268 33.6264 38.5724 33.0263 38.5724 32.3089C38.5724 31.5845 38.4268 30.9737 38.1357 30.4766C37.8516 29.9794 37.4148 29.603 36.8253 29.3473C36.2429 29.0845 35.5078 28.9531 34.62 28.9531H31.5092V47H26.8963ZM38.679 37.071L44.1016 47H39.0092L33.7038 37.071H38.679ZM46.5838 47V25.1818H55.1918C56.8466 25.1818 58.2564 25.4979 59.4212 26.13C60.5859 26.755 61.4737 27.625 62.0845 28.7401C62.7024 29.848 63.0114 31.1264 63.0114 32.5753C63.0114 34.0241 62.6989 35.3026 62.0739 36.4105C61.4489 37.5185 60.5433 38.3814 59.3572 38.9993C58.1783 39.6172 56.7507 39.9261 55.0746 39.9261H49.5881V36.2294H54.3288C55.2166 36.2294 55.9482 36.0767 56.5234 35.7713C57.1058 35.4588 57.5391 35.0291 57.8232 34.4822C58.1143 33.9283 58.2599 33.2926 58.2599 32.5753C58.2599 31.8509 58.1143 31.2187 57.8232 30.679C57.5391 30.1321 57.1058 29.7095 56.5234 29.4112C55.9411 29.1058 55.2024 28.9531 54.3075 28.9531H51.1967V47H46.5838ZM76.3388 25.1818V47H73.6967V25.1818H76.3388ZM83.8095 37.1562V47H81.2953V30.6364H83.7243V33.1932H83.9373C84.3208 32.3622 84.9032 31.6946 85.6845 31.1903C86.4657 30.679 87.4743 30.4233 88.7101 30.4233C89.818 30.4233 90.7875 30.6506 91.6184 31.1051C92.4494 31.5526 93.0957 32.2344 93.5574 33.1506C94.019 34.0597 94.2498 35.2102 94.2498 36.6023V47H91.7356V36.7727C91.7356 35.4872 91.4018 34.4858 90.7342 33.7685C90.0666 33.044 89.1504 32.6818 87.9856 32.6818C87.1831 32.6818 86.4657 32.8558 85.8336 33.2038C85.2086 33.5518 84.715 34.0597 84.3528 34.7273C83.9906 35.3949 83.8095 36.2045 83.8095 37.1562ZM111.639 30.6364L105.588 47H103.031L96.9798 30.6364H99.707L104.224 43.6761H104.395L108.912 30.6364H111.639ZM121.232 47.3409C119.656 47.3409 118.295 46.9929 117.152 46.2969C116.016 45.5938 115.138 44.6136 114.521 43.3565C113.91 42.0923 113.604 40.6222 113.604 38.946C113.604 37.2699 113.91 35.7926 114.521 34.5142C115.138 33.2287 115.998 32.2273 117.099 31.5099C118.207 30.7855 119.499 30.4233 120.977 30.4233C121.829 30.4233 122.67 30.5653 123.501 30.8494C124.332 31.1335 125.089 31.5952 125.771 32.2344C126.452 32.8665 126.996 33.7045 127.401 34.7486C127.805 35.7926 128.008 37.0781 128.008 38.6051V39.6705H115.394V37.4972H125.451C125.451 36.5739 125.266 35.75 124.897 35.0256C124.535 34.3011 124.016 33.7294 123.342 33.3104C122.674 32.8913 121.886 32.6818 120.977 32.6818C119.975 32.6818 119.109 32.9304 118.377 33.4276C117.653 33.9176 117.095 34.5568 116.705 35.3452C116.314 36.1335 116.119 36.9787 116.119 37.8807V39.3295C116.119 40.5653 116.332 41.6129 116.758 42.4723C117.191 43.3246 117.791 43.9744 118.558 44.4219C119.325 44.8622 120.217 45.0824 121.232 45.0824C121.893 45.0824 122.489 44.9901 123.022 44.8054C123.562 44.6136 124.027 44.3295 124.418 43.9531C124.808 43.5696 125.11 43.0937 125.323 42.5256L127.752 43.2074C127.496 44.0312 127.067 44.7557 126.463 45.3807C125.859 45.9986 125.114 46.4815 124.226 46.8295C123.338 47.1705 122.34 47.3409 121.232 47.3409ZM143.423 34.3011L141.165 34.9403C141.023 34.5639 140.813 34.1982 140.536 33.843C140.266 33.4808 139.897 33.1825 139.428 32.9482C138.96 32.7138 138.359 32.5966 137.628 32.5966C136.626 32.5966 135.792 32.8274 135.124 33.2891C134.464 33.7436 134.134 34.3224 134.134 35.0256C134.134 35.6506 134.361 36.1442 134.815 36.5064C135.27 36.8686 135.98 37.1705 136.946 37.4119L139.375 38.0085C140.838 38.3636 141.928 38.907 142.646 39.6385C143.363 40.3629 143.722 41.2969 143.722 42.4403C143.722 43.3778 143.452 44.2159 142.912 44.9545C142.379 45.6932 141.634 46.2756 140.675 46.7017C139.716 47.1278 138.601 47.3409 137.33 47.3409C135.661 47.3409 134.279 46.9787 133.185 46.2543C132.092 45.5298 131.399 44.4716 131.108 43.0795L133.494 42.483C133.722 43.3636 134.151 44.0241 134.783 44.4645C135.423 44.9048 136.257 45.125 137.287 45.125C138.459 45.125 139.389 44.8764 140.078 44.3793C140.774 43.875 141.122 43.2713 141.122 42.5682C141.122 42 140.923 41.5241 140.526 41.1406C140.128 40.75 139.517 40.4588 138.693 40.267L135.966 39.6278C134.467 39.2727 133.366 38.7223 132.663 37.9766C131.967 37.2237 131.619 36.2827 131.619 35.1534C131.619 34.2301 131.879 33.4134 132.397 32.7031C132.923 31.9929 133.636 31.4354 134.538 31.0305C135.447 30.6257 136.477 30.4233 137.628 30.4233C139.247 30.4233 140.518 30.7784 141.442 31.4886C142.372 32.1989 143.033 33.1364 143.423 34.3011ZM154.623 30.6364V32.767H146.143V30.6364H154.623ZM148.614 26.7159H151.128V42.3125C151.128 43.0227 151.231 43.5554 151.437 43.9105C151.65 44.2585 151.92 44.4929 152.247 44.6136C152.581 44.7273 152.932 44.7841 153.302 44.7841C153.579 44.7841 153.806 44.7699 153.983 44.7415C154.161 44.706 154.303 44.6776 154.41 44.6562L154.921 46.9148C154.751 46.9787 154.513 47.0426 154.207 47.1065C153.902 47.1776 153.515 47.2131 153.046 47.2131C152.336 47.2131 151.64 47.0604 150.958 46.755C150.283 46.4496 149.722 45.9844 149.275 45.3594C148.834 44.7344 148.614 43.946 148.614 42.9943V26.7159Z" fill="#0F162C"/>
</svg>
